<svg xmlns:xlink="http://www.w3.org/1999/xlink" xmlns="http://www.w3.org/2000/svg" version="1.1" viewBox="0 0 800 800" height="800px" width="800px">
    
    <title>1.Welcome</title>
    <desc>Created with Sketch.</desc>
    <defs>
        <path id="path-1" d="M42.7655641,581.135215 C-11.6243295,412.930688 -14.1338039,297.364643 35.237141,234.437082 C109.293558,140.045741 169.908302,174.295028 345.147448,60.5349183 C520.386594,-53.2251911 716.736132,8.32744972 730.831197,128.149445 C740.227907,208.030775 741.041729,358.800485 733.272664,580.458575 L42.7655641,581.135215 Z"></path>
        <linearGradient id="linearGradient-3" y2="96.6228555%" x2="56.3989816%" y1="3.39856823%" x1="46.5321739%">
            <stop offset="0%" stop-color="#95C9FF"></stop>
            <stop offset="100%" stop-color="#F3F9FF"></stop>
        </linearGradient>
        <path id="path-4" d="M129.125714,0.0350971982 C148.816582,7.7316895 160.557534,12.8081043 164.34857,15.2643415 C170.035124,18.9486973 185.163222,70.7416145 190.221726,88.5483647 C195.28023,106.355115 192.943682,124.307134 181.703541,126.312804 C174.210113,127.649917 162.837559,126.101264 147.585879,121.666842 L147.585879,121.666842 L147.585879,135.288902 L72.1841339,135.288902 L75.078986,71.3425144 C67.4087372,90.8688086 61.0542042,101.990859 56.015387,104.708666 C50.9765699,107.426473 32.3047742,107.790226 1.42108547e-14,105.799927 L1.42108547e-14,105.799927 L1.42108547e-14,80.6635274 L1.42108547e-14,80.6635274 L38.3226836,80.6635274 C42.8363236,80.6635274 63.5736128,26.0766915 68.7683977,17.1469655 C72.2315876,11.1938149 84.901327,5.93056212 106.777616,1.35720725 L106.777616,1.35720725 Z M152.642675,61.940235 L147.645175,94.9762332 L164.59999,96.6909802 L152.642675,61.940235 Z"></path>
        <path id="path-6" d="M28.9060982,41.7405724 C26.8592704,31.43269 33.895662,25.2876896 38.5311879,21.1484338 C40.7373153,19.17849 41.0534948,14.0520039 37.7149176,13.6604806 C35.4891996,13.3994651 33.7639003,14.1392816 32.5390198,15.8799302 C26.250386,14.6629066 21.3688588,13.2612847 17.894438,11.6750644 C14.4200172,10.0888442 10.5508049,6.19715602 6.2868009,7.10542736e-15 C4.82952938,1.23221992 3.81596403,2.28333087 3.24610484,3.15333286 C2.36056711,4.50528014 1.7306675,5.41818185 1.02920882,8.00724629 C-0.290563295,13.0873373 -3.3766284,45.2324261 15.5867618,43.8457942 C18.8447175,50.1891677 19.9606061,54.8334927 18.9344276,57.7787693 C17.3951599,62.1966841 6.48298016,74.1847849 9.50721176,82.4223192 C12.5314434,90.6598536 28.811807,86.0022261 34.9525867,74.0718338 C39.0464399,66.118239 41.2656578,59.3748809 41.6102406,53.8417595 C34.5053642,52.6462231 30.2706501,48.6124941 28.9060982,41.7405724 Z"></path>
        <polygon points="-1.28909099e-14 0 594.48829 0 594.48829 292.740526 -1.28909099e-14 292.740526" id="path-8"></polygon>
        <path id="path-10" d="M-1.13686838e-13,97.4557678 C23.9089923,35.7153783 70.9692367,3.23012237 141.180733,-2.84217094e-14 C128.359176,10.0608966 119.923666,17.420136 115.874205,22.0777185 C106.506107,32.8526526 103.44317,43.7916104 100.037471,44.7468274 L86.2900066,46.940597 C76.5257475,59.50477 68.0471684,65.7868565 60.8542693,65.7868565 C50.5275251,73.6776264 40.1549712,78.1222598 29.7366073,79.1207566 C19.3182435,80.1192535 9.40604103,86.2309239 -1.13686838e-13,97.4557678 Z"></path>
        <path id="path-12" d="M32.9599345,149.103858 C18.8634781,138.891767 10.5705034,126.255557 8.08101043,111.195228 C4.34677092,88.6047347 -0.705172717,93.4647287 1.8207991,76.6754558 C4.34677092,59.8861828 8.25744878,50.6466207 1.8207991,32.9098718 C-4.61585058,15.1731229 8.08101043,6.76373088 8.08101043,2.84217094e-14 C15.4809986,5.29109094 20.5169362,14.1034041 23.1888233,26.4369394 C27.1966539,44.9372424 36.4049491,56.1910929 38.3647548,65.3715109 C40.3245605,74.5519289 37.1955716,87.5413323 41.3586233,93.0823943 C45.521675,98.6234563 46.7599119,106.680346 41.3586233,122.906706 C37.7577642,133.72428 34.9582013,142.456664 32.9599345,149.103858 Z"></path>
        <path id="path-14" d="M106.691282,125.439121 C89.3631008,58.2798001 53.8673526,16.4667596 0.204037953,5.68434189e-14 C-1.26851503,13.1368463 5.22955307,24.8391026 19.6982422,35.1067689 C13.2556368,47.238176 20.4389855,57.3367829 41.2482883,65.4025895 C48.2819994,69.1330436 54.4506415,77.2237447 59.7542145,89.6746927 C65.0577875,102.125641 80.7034768,114.047117 106.691282,125.439121 Z"></path>
        <path id="path-16" d="M2.25440793,109.678946 C-1.45942581,98.1685488 -0.584728499,89.8465386 4.87849986,84.7129154 C8.55200565,79.8019613 9.44018503,73.0303458 7.54303799,64.3980688 C4.69731743,51.4496534 14.3453065,46.7814353 19.3915137,38.8960395 C19.9615875,30.0929128 23.3174738,24.3868879 29.4591725,21.777965 C35.6008712,19.169042 41.0838883,11.9097204 45.9082237,-5.68434189e-14 C56.8742579,17.8547364 56.8742579,31.4583327 45.9082237,40.8107889 C44.4387186,50.9176075 40.9281485,58.5658306 35.3765134,63.755458 C27.0490608,71.5398992 31.8692843,76.1876944 29.4591725,83.6691912 C27.8524314,88.6568558 18.7841765,97.3267741 2.25440793,109.678946 Z"></path>
        <polygon points="0.131501479 0 52.8057292 0 47.2610737 52.2586628 5.67615703 52.2586628" id="path-18"></polygon>
        <rect rx="24" height="161.714286" width="113" y="0" x="0" id="path-20"></rect>
        <path id="path-22" d="M7.25215924,0 L49.1096839,8.26815242 L59.4923539,53.8909194 C60.2276749,57.1220132 58.2044514,60.3374277 54.9733576,61.0727487 C54.7462036,61.1244437 54.5162316,61.1628652 54.2846097,61.1878181 L29.6393166,63.8428853 C28.6811619,63.9461085 27.7122405,63.8170171 26.8145341,63.4665337 L-4.26325641e-14,52.9975768 L-4.26325641e-14,52.9975768 L7.25215924,0 Z"></path>
    </defs>
    <g fill-rule="evenodd" fill="none" stroke-width="1" stroke="none" id="1.Welcome">
        <rect height="800" width="800" y="0" x="0" fill="#FFFFFF"></rect>
        <g transform="translate(31.000000, 109.000000)">
            <g id="Receptionist-+-Table-+-Flower-Mask">
                <mask fill="white" id="mask-2">
                    <use xlink:href="#path-1"></use>
                </mask>
                <use xlink:href="#path-1" fill="#F3F9FF" id="Mask"></use>
                <rect height="500.710253" width="179.125293" y="79.9297132" x="564.62223" mask="url(#mask-2)" fill="url(#linearGradient-3)" id="Rectangle"></rect>
                <polygon points="739 75.2362556 635.166582 101.949517 635.166582 567.848611 744.112069 582" mask="url(#mask-2)" fill="#F3F9FF" id="Path-60"></polygon>
                <ellipse ry="9.08023774" rx="9.08606557" cy="296.558242" cx="648.1275" mask="url(#mask-2)" fill="#A7CCFF" id="Oval"></ellipse>
                <rect height="521.465082" width="199.028103" y="60.5349183" x="545.163934" mask="url(#mask-2)" stroke-width="1.10000002" stroke="#80B6FF" id="Rectangle-Copy-5"></rect>
                <g mask="url(#mask-2)" id="Receptionist">
                    <g transform="translate(312.295905, 79.929713)">
                        <path fill-rule="evenodd" fill="#903032" stroke="none" id="Path-2" d="M172.145871,66.1663713 C185.63622,72.7254414 196.1673,71.796535 203.739111,63.3796522 C215.096827,50.754328 210.542424,38.1107749 198.986049,32.4011984 C187.429673,26.691622 187.429673,19.2891939 181.692397,9.58950047 C175.955121,-0.11019293 151.636602,-6.42289422 143.234549,10.7375906 C138.63992,11.5178349 136.108289,16.0794913 135.639654,24.4225598 C134.588406,31.1909262 131.029595,36.0286891 124.963223,38.9358485 C115.863664,43.2965877 115.204208,61.8393398 132.851269,59.2489705 C129.672095,76.6322017 135.639543,85.3238173 150.753614,85.3238173 C165.867685,85.3238173 172.998437,78.938002 172.145871,66.1663713 Z"></path>
                        <g transform="translate(0.000000, 68.176852)" fill-rule="evenodd" fill="none" stroke-width="1" stroke="none" id="Body">
                            <g transform="translate(49.922552, 0.000000)" id="Path-6">
                                <mask fill="white" id="mask-5">
                                    <use xlink:href="#path-4"></use>
                                </mask>
                                <use xlink:href="#path-4" fill="#006A86" id="Combined-Shape"></use>
                                <line mask="url(#mask-5)" stroke="#053947" id="Path-17" y2="72.2102019" x2="75.7322694" y1="39.5705864" x1="83.5945339"></line>
                                <path mask="url(#mask-5)" fill="#D2F6FF" d="M112.607838,67.0646524 C112.607838,53.8618958 126.33814,26.4247957 130.735604,10.4109207 C132.251188,4.89174629 131.275357,1.12870789 127.808113,-0.878194526 C117.228426,-4.70459758 110.659381,-4.04742593 108.100976,1.09332042 C101.449609,8.08068677 97.2311322,13.4319018 95.4455462,17.1469655 C91.3985087,25.5671716 89.5210521,34.5175181 87.5154732,38.3156017 C81.2037067,50.2685678 75.9875669,56.0825872 74.7725009,62.1325971 C74.1922946,65.021538 75.5328693,69.3796114 76.9176533,72.8155955 C81.8083941,84.9507059 83.068378,105.775142 80.6976048,135.288902 L112.607838,135.288902 C115.261401,131.390004 116.588182,124.432782 116.588182,114.417237 C116.588182,99.3939196 112.607838,80.267409 112.607838,67.0646524 Z"></path>
                                <line mask="url(#mask-5)" stroke="#053947" id="Path-18" y2="87.5659665" x2="46.2347364" y1="80.6635274" x1="38.3226836"></line>
                            </g>
                            <g transform="translate(0.000000, 74.912830)" id="Right-Hand">
                                <path fill="#FFA990" id="Path-4" d="M49.9225518,11.4237994 C45.2437836,11.9717121 42.5368761,11.8939434 41.8018293,11.1904933 C40.6992592,10.1353181 34.3541391,4.50856402 33.7184062,3.99622461 C33.2945842,3.654665 30.0646483,2.32259013 24.0285984,0 C23.1489122,1.23021743 23.0374927,2.5622923 23.6943401,3.99622461 C24.0001321,4.66378449 25.7807666,5.76079836 29.0362437,7.28726623 L31.4675767,10.4419578 L4.55661742,10.4419578 C2.43425166,10.4770956 1.37306878,11.0397906 1.37306878,12.1300427 C1.37306878,13.2202947 2.43425166,13.7654208 4.55661742,13.7654208 L14.9618406,15.4753412 L2.7756799,15.8704432 C0.925226634,16.1191412 -5.68434189e-14,16.6701997 -5.68434189e-14,17.5236189 C-5.68434189e-14,18.3770381 0.925226634,18.8918758 2.7756799,19.0681318 L15.4256424,20.968383 L5.31848263,21.2563939 C4.13754726,21.363176 3.54707957,21.9071549 3.54707957,22.8883308 C3.54707957,23.8695067 4.13754726,24.3600946 5.31848263,24.3600946 L16.3423375,25.7191251 L9.04310769,26.6870947 C8.07217303,26.9332577 7.58670569,27.424428 7.58670569,28.1606056 C7.58670569,28.8967832 8.07217303,29.2648721 9.04310769,29.2648721 C18.2311146,30.4774391 24.7580191,30.9979663 28.6238212,30.8264535 C34.4225244,30.5691843 38.9611861,30.1378261 44.0259357,27.7128002 L49.9225518,27.7128002 L49.9225518,11.4237994 Z"></path>
                                <line stroke="#4C1819" id="Path-7" y2="15.8065268" x2="17.464092" y1="14.6505225" x1="9.64504036"></line>
                                <line stroke="#4C1819" id="Path-8" y2="21.274068" x2="17.464092" y1="20.2393915" x1="10.2242026"></line>
                                <line stroke="#4C1819" id="Path-9" y2="25.7191251" x2="17.464092" y1="25.1442948" x1="11.4412953"></line>
                                <path stroke="#4C1819" id="Path-10" d="M18.0643358,13.4290214 C17.0683095,18.5949021 17.1527316,23.4332507 18.3176019,27.9440671"></path>
                                <path stroke="#4C1819" id="Path-11" d="M31.9599587,26.6640449 C27.9975941,21.5441037 27.9975941,16.7950813 31.9599587,12.4169778 C33.5515725,17.4250833 36.6574072,19.7207192 41.2774626,19.3038855"></path>
                            </g>
                            <g transform="translate(126.840205, 84.336344)" id="Left-Hand">
                                <path fill="#FFA990" id="Path-5" d="M43.3038116,10.3021172 C37.0656806,6.42509933 33.7447054,4.39189575 33.3408863,4.20250642 C33.030245,4.05681706 30.2682615,3.42859585 25.6473259,1.84913862 C24.7232837,1.53329671 23.2420497,0.916917174 21.2036238,0 C20.3239213,1.81346063 20.3239213,3.30899077 21.2036238,4.48659041 C22.0833264,5.66419005 24.5251016,6.8089211 28.5289497,7.92078357 L10.2725611,7.92078357 L5.22277013,7.92078357 C3.78206991,7.92078357 3.0617198,8.35462321 3.0617198,9.22230249 C3.0617198,10.0899818 3.78206991,10.6673937 5.22277013,10.9545384 L14.8828753,12.9619865 L2.02182483,13.7234027 C0.673941611,13.8504746 0,14.4325642 0,15.4696713 C0,16.5067785 0.673941611,17.0838799 2.02182483,17.2009757 L16.0985884,18.6984906 L5.22277013,19.4761489 C3.92345582,19.5798037 3.27379867,20.1287818 3.27379867,21.1230834 C3.27379867,22.117385 3.92345582,22.651305 5.22277013,22.7248435 L17.500564,23.3823356 L9.33272192,25.3690842 C8.27558864,25.6799963 7.747022,26.1641247 7.747022,26.8214693 C7.747022,27.4788138 8.27558864,27.7914802 9.33272192,27.7594684 C17.6545107,27.7594684 22.8509294,27.7594684 24.921978,27.7594684 C26.9930266,27.7594684 33.1203044,27.0672005 43.3038116,25.6826648 L47.3067355,26.8422623 L47.3067355,11.4617146 L43.3038116,10.3021172 Z"></path>
                                <line stroke="#4C1819" id="Path-12" y2="8.55692399" x2="30.2900769" y1="7.51034862" x1="27.1788831"></line>
                                <line stroke="#4C1819" id="Path-27" y2="12.7574557" x2="17.6390446" y1="13.4041605" x1="9.08606557"></line>
                                <line stroke="#4C1819" id="Path-28" y2="18.5389879" x2="17.6390446" y1="19.0600531" x1="10.8167447"></line>
                                <line stroke="#4C1819" id="Path-29" y2="22.9437111" x2="18.6640583" y1="24.6463596" x1="13.9085096"></line>
                            </g>
                            <path stroke="#053947" id="Path-15" d="M230.983513,112.098042 C230.983513,107.741512 228.435317,103.114562 223.338923,98.2171931 L174.146941,92.893268 L174.146941,112.098042 L197.508431,121.666842"></path>
                        </g>
                        <g transform="translate(134.390102, 14.370189)" fill-rule="evenodd" fill="none" stroke-width="1" stroke="none" id="Face">
                            <g transform="translate(3.047923, 0.000000)" id="Path-3">
                                <mask fill="white" id="mask-7">
                                    <use xlink:href="#path-6"></use>
                                </mask>
                                <use xlink:href="#path-6" fill="#FFA990" id="Mask"></use>
                                <path mask="url(#mask-7)" fill="#E79279" d="M15.5867618,43.8457942 C19.0656674,42.5824878 22.1698012,40.8969281 24.899163,38.7891152 C23.9291159,51.4676333 20.8249822,59.1333875 15.5867618,61.7863778 C10.3485414,64.4393681 10.3485414,58.4591736 15.5867618,43.8457942 Z"></path>
                                <path mask="url(#mask-7)" fill="#FFFFFF" id="Path-19" d="M4.72906654,32.9093952 C4.72906654,32.9093952 7.63301373,32.9093952 13.4409081,32.9093952 C12.7201284,35.0866818 11.1945824,36.1753251 8.86427012,36.1753251 C5.36880174,36.1753251 4.72906654,32.9093952 4.72906654,32.9093952 Z"></path>
                                <path mask="url(#mask-7)" stroke="#4C1819" id="Path-20" d="M7.97797971,20.1075264 C5.47076862,25.2633459 4.21716307,28.2586565 4.21716307,29.0934583 C4.21716307,29.9282601 6.25376913,30.1461386 10.3269813,29.7470938"></path>
                                <ellipse ry="1.15959746" rx="1.16062133" cy="18.5535594" cx="13.927456" mask="url(#mask-7)" fill="#4C1819" id="Oval"></ellipse>
                                <ellipse ry="1.15959746" rx="1.16062133" cy="18.5535594" cx="2.32124266" mask="url(#mask-7)" fill="#4C1819" id="Oval-Copy-2"></ellipse>
                                <path mask="url(#mask-7)" stroke="#4C1819" id="Path-21" d="M1.16062133,12.4901916 C1.16062133,12.4901916 2.70039395,11.4312138 5.89269064,12.4901916"></path>
                                <path mask="url(#mask-7)" stroke="#4C1819" id="Path-22" d="M11.2105159,12.8346619 C13.3111033,11.6503555 15.6671413,11.7848821 18.2786297,13.2382419"></path>
                                <path mask="url(#mask-7)" stroke="#903032" id="Path-25" d="M6.73789807,-0.580700846 C9.66246975,10.0592484 18.2636666,15.5461254 32.5414886,15.8799302"></path>
                            </g>
                            <ellipse ry="4.63838984" rx="4.64248532" cy="18.7657151" cx="4.64248532" stroke="#FFFFFF" id="Oval"></ellipse>
                            <ellipse ry="4.63838984" rx="4.64248532" cy="18.7657151" cx="17.40932" stroke="#FFFFFF" id="Oval-Copy"></ellipse>
                            <line stroke="#FFFFFF" id="Path-13" y2="18.7657151" x2="12.7668346" y1="18.7657151" x1="9.28497064"></line>
                            <line stroke="#FFFFFF" id="Path-14" y2="15.4946198" x2="35.5894116" y1="18.7657151" x1="22.0518053"></line>
                        </g>
                        <path fill="none" stroke-width="1" stroke="#903032" id="Path-23" d="M166.443626,1.09961051 C175.374318,1.09961051 182.358796,6.20244699 187.397061,16.40812 C194.954457,31.7166294 201.08058,28.9780217 207.468802,35.4532114 C213.857024,41.9284011 213.698494,56.0859136 202.972539,62.7952115"></path>
                        <path fill="none" stroke-width="1" stroke="#903032" id="Path-24" d="M137.438025,17.7773086 C135.439377,28.2923455 131.446139,34.9580074 125.458309,37.7742943 C116.476564,41.9987247 114.936543,49.7244983 122.065363,56.2598549"></path>
                        <path fill="none" stroke-width="1" stroke="#903032" id="Path-26" d="M175.893089,36.3886965 C175.893089,37.0185817 160.389159,46.5043183 166.443626,60.613647 C172.498093,74.7229758 204.915196,73.7075995 204.915196,57.6574439"></path>
                    </g>
                </g>
                <g mask="url(#mask-2)" id="Table">
                    <g transform="translate(-15.014399, 277.100590)">
                        <polygon points="-3.6275621e-14 0 608.333724 0 608.333724 10.3774146 -3.6275621e-14 10.3774146" fill="#5EA4EC" id="Rectangle"></polygon>
                        <g transform="translate(0.000000, 10.377415)" fill="none" stroke-width="1" id="Rectangle">
                            <mask fill="white" id="mask-9">
                                <use xlink:href="#path-8"></use>
                            </mask>
                            <use xlink:href="#path-8" fill="#F3F9FF" id="Mask"></use>
                            <polygon points="-3.28821405e-14 51.8870728 449.976581 51.8870728 449.976581 293.161961 -3.28821405e-14 293.161961" mask="url(#mask-9)" stroke="#D1E7FF"></polygon>
                            <polygon points="-2.62959551e-14 77.8306092 424.016393 77.8306092 424.016393 319.105498 -2.62959551e-14 319.105498" mask="url(#mask-9)" stroke="#D1E7FF" id="Rectangle-Copy-3"></polygon>
                        </g>
                        <polygon points="486.320843 10.3774146 594.48829 10.3774146 594.48829 303.11794 486.320843 303.11794" fill="#D1E7FF" id="Rectangle-Copy-4"></polygon>
                        <polygon points="-2.92623655e-14 10.3774146 594.48829 10.3774146 594.48829 20.7548291 -2.92623655e-14 20.7548291" fill="#4E94DD" id="Rectangle-Copy-2"></polygon>
                        <polygon points="486.320843 0 608.333724 0 608.333724 10.3774146 486.320843 10.3774146" fill="#4181C4" id="Rectangle-Copy"></polygon>
                    </g>
                </g>
                <g mask="url(#mask-2)" id="Flower">
                    <g transform="translate(324.057828, 317.745464)">
                        <path stroke="#AAC9F1" id="Path-50" d="M120.494454,223.323016 C125.170457,194.005242 138.610135,161.967729 160.813488,127.210476"></path>
                        <path stroke="#AAC9F1" id="Path-51" d="M116.976631,223.323016 C117.507708,179.859434 123.643498,148.169829 135.383999,128.2542"></path>
                        <path stroke="#AAC9F1" id="Path-52" d="M116.976631,221.530162 C114.640633,180.576221 111.212183,150.130999 106.691282,130.194495"></path>
                        <path stroke="#AAC9F1" id="Path-53" d="M115.148067,223.323016 C118.795277,208.365557 107.381176,185.938228 80.9057631,156.041028"></path>
                        <g transform="translate(142.164692, 62.467344)" fill-rule="evenodd" stroke="none" id="Path-48-+-Path-58-+-Path-59-Mask">
                            <mask fill="white" id="mask-11">
                                <use xlink:href="#path-10"></use>
                            </mask>
                            <use xlink:href="#path-10" fill="#E4F0FF" id="Mask"></use>
                            <path mask="url(#mask-11)" stroke="#F1F7FF" id="Path-48" d="M10.1687974,74.8417038 C11.8128306,74.8417038 28.2058366,56.7320093 60.8542693,65.7868565"></path>
                            <path mask="url(#mask-11)" stroke="#F1F7FF" id="Path-58" d="M26.5167101,46.9815077 C52.6379434,38.4633482 74.3424122,39.0454736 91.6301165,48.7278839"></path>
                            <path mask="url(#mask-11)" stroke="#F1F7FF" id="Path-59" d="M45.8741137,28.2293584 C45.8741137,28.2293584 87.9010707,3.4266388 134.522207,13.4815306"></path>
                        </g>
                        <g transform="translate(77.429853, 0.000000)" fill-rule="evenodd" stroke="none" id="Path-55">
                            <mask fill="white" id="mask-13">
                                <use xlink:href="#path-12"></use>
                            </mask>
                            <use xlink:href="#path-12" fill="#E4F0FF" id="Mask"></use>
                            <path mask="url(#mask-13)" stroke="#FFFFFF" d="M8.08101043,0 C13.1891115,21.5093346 15.743162,36.7699422 15.743162,45.7818228 C15.743162,59.2996437 15.3007967,69.5431206 20.9282617,89.1113599 C24.679905,102.156853 28.6904626,122.154352 32.9599345,149.103858"></path>
                        </g>
                        <g transform="translate(0.000000, 64.490916)" fill-rule="evenodd" stroke="none" id="Path-47-+-Path-49-+-Path-56-+-Path-57-Mask">
                            <mask fill="white" id="mask-15">
                                <use xlink:href="#path-14"></use>
                            </mask>
                            <use xlink:href="#path-14" fill="#B6D6FF" id="Mask"></use>
                            <line mask="url(#mask-15)" stroke="#C3DDFF" id="Path-47" y2="104.09924" x2="68.2288599" y1="106.602666" x1="101.659862"></line>
                            <line mask="url(#mask-15)" stroke="#C3DDFF" id="Path-49" y2="82.3222087" x2="50.7096275" y1="88.7293157" x1="94.8064149"></line>
                            <line mask="url(#mask-15)" stroke="#C3DDFF" id="Path-56" y2="63.7632848" x2="35.9598185" y1="68.4819253" x1="84.9443607"></line>
                            <path mask="url(#mask-15)" stroke="#C3DDFF" id="Path-57" d="M70.8748571,46.7043122 C43.3680749,40.4238596 24.1357242,36.1523697 13.1778051,33.8898426"></path>
                        </g>
                        <g transform="translate(122.773179, 43.541285)" fill-rule="evenodd" stroke="none" id="Path-54">
                            <mask fill="white" id="mask-17">
                                <use xlink:href="#path-16"></use>
                            </mask>
                            <use xlink:href="#path-16" fill="#B6D6FF" id="Mask"></use>
                            <path mask="url(#mask-17)" stroke="#FFFFFF" d="M45.9082237,-5.68434189e-14 C43.3381925,11.4213516 41.2797398,19.3351355 39.7328655,23.7413516 C35.0051954,37.2079512 29.7723257,45.8076604 27.0663747,52.3987431 C13.7791324,84.7634501 3.46258701,103.919951 2.25440793,109.678946"></path>
                        </g>
                        <g transform="translate(86.533958, 201.494799)" fill-rule="evenodd" stroke="none" id="Group-2">
                            <g id="Group">
                                <g transform="translate(5.413154, 8.301932)" id="Path-46">
                                    <mask fill="white" id="mask-19">
                                        <use xlink:href="#path-18"></use>
                                    </mask>
                                    <use xlink:href="#path-18" fill="#72A7DE" id="Mask"></use>
                                    <polygon points="52.8057292 7.64286927 -1.38616389 23.3078809 -1.38616389 5.87204187" mask="url(#mask-19)" fill="#4580BD"></polygon>
                                </g>
                                <rect height="16.6038642" width="63.7635388" y="-4.26325641e-14" x="0" fill="#4E94DD" id="Rectangle"></rect>
                            </g>
                        </g>
                    </g>
                </g>
                <line mask="url(#mask-2)" stroke="#80B6FF" id="Path" y2="81.2480147" x2="563.933806" y1="60.5349183" x1="545.163934"></line>
                <polyline points="737.037268 126.78944 664.714517 141.641809 664.714517 529.161723 729.739695 533.808557" mask="url(#mask-2)" stroke-width="8" stroke="#A7CCFF" id="Path-61"></polyline>
                <g mask="url(#mask-2)" id="Suitcase-2">
                    <g id="Suitcase" transform="translate(16.000000, 309.000000)">
                        <g>
                            <path stroke-width="5" stroke="#B4B4B4" id="Path-67" d="M19.0467487,112.19286 L19.0467487,25 C19.0467487,11.1928813 30.23963,6.08904025e-15 44.0467487,0 L67.8565049,0 C81.6636236,1.01638711e-15 92.8565049,11.1928813 92.8565049,25 L92.8565049,112.19286 L92.8565049,112.19286"></path>
                            <rect rx="6.03816794" height="28.3860182" width="12.0763359" y="244.122951" x="15.5267176" fill="#38372D" id="Rectangle"></rect>
                            <rect rx="6.03816794" height="28.3860182" width="12.0763359" y="244.122951" x="84.5343511" fill="#38372D" id="Rectangle-Copy-5"></rect>
                            <g transform="translate(0.000000, 98.752130)" id="Rectangle-Copy-4">
                                <g id="Rectangle-Copy">
                                    <mask fill="white" id="mask-21">
                                        <use xlink:href="#path-20"></use>
                                    </mask>
                                    <use xlink:href="#path-20" fill="#E38F00" id="Mask"></use>
                                    <rect rx="24" height="161.714286" width="113" y="3.44072948" x="3.45038168" mask="url(#mask-21)" fill="#F5B315"></rect>
                                    <rect rx="20" height="112.683891" width="78.4961832" y="28.3860182" x="17.2519084" mask="url(#mask-21)" fill="#E38F00" id="Rectangle-Copy-2"></rect>
                                    <path mask="url(#mask-21)" fill="#F5B315" id="Rectangle-Copy-3" d="M40.7022901,31.8267477 L79.1984733,31.8267477 C90.2441683,31.8267477 99.1984733,40.7810527 99.1984733,51.8267477 L99.1984733,120.209726 C99.1984733,131.255421 90.2441683,140.209726 79.1984733,140.209726 L40.7022901,140.209726 C29.6565951,140.209726 20.7022901,131.255421 20.7022901,120.209726 L20.7022901,51.8267477 C20.7022901,40.7810527 29.6565951,31.8267477 40.7022901,31.8267477 Z"></path>
                                    <rect rx="4" height="12.0425532" width="37.0916031" y="52.4711246" x="37.9541985" mask="url(#mask-21)" fill="#FFFFFF" id="Rectangle"></rect>
                                </g>
                            </g>
                            <line stroke-linecap="round" stroke-width="11" stroke="#56565F" id="Path-68" y2="1.26765085" x2="78.3067048" y1="1.26765085" x1="33.5968541"></line>
                        </g>
                    </g>
                </g>
            </g>
            <g transform="translate(134.625743, 84.668840)" id="Woman">
                <path stroke-width="4" stroke="#5A271D" id="Path-63" d="M135.348762,125.957969 C125.644039,132.488602 120.791677,147.794578 120.791677,171.875896"></path>
                <g transform="translate(168.287256, 80.168885)" id="Hand">
                    <path fill="#FFA990" id="Path-42" d="M-3.19744231e-14,26.2598364 C3.02027029,17.3438173 4.68332617,12.6343049 4.98916762,12.131299 C5.15662008,11.8558963 6.53606147,11.3187305 8.49687388,9.48422807 C9.57719982,8.47349366 11.5607157,6.25236473 14.4474216,2.82084128 C15.4531263,4.17837175 15.9559787,5.39586221 15.9559787,6.47331265 C15.9559787,7.55076309 14.6492787,9.68826147 12.0358787,12.8858078 C25.1346696,9.87926363 32.4979021,7.98315549 34.125576,7.19748337 C36.567087,6.01897519 39.1313691,3.57998045 39.7167035,2.82084128 C40.302038,2.06170211 42.0150718,-0.616488355 43.2780347,0.130035643 C44.6885297,0.963764306 43.9201216,2.66979004 42.9097986,4.40605246 C42.2362499,5.56356075 40.5168359,7.48723018 37.7515567,10.1770607 L35.308647,11.9292309 C37.2531359,11.2598682 38.6643009,10.5890265 39.5421418,9.9167057 C40.8589033,8.90822455 44.6078045,5.89421698 45.6932241,4.68636036 C46.7786437,3.47850374 48.1564648,1.11638628 49.6713545,2.1929962 C51.1862442,3.26960612 49.4425046,5.33591979 48.6357923,6.64398425 C47.8290801,7.95204871 43.9885289,12.0941889 42.7470555,12.8858078 C41.9194066,13.4135537 40.7812281,14.2836325 39.3325201,15.4960442 C41.9628631,14.2836325 43.7176993,13.4135537 44.5970286,12.8858078 C45.9160226,12.0941889 47.6701589,10.3156922 48.3933252,9.73474707 C49.1164915,9.15380195 50.2988191,7.60622808 51.5358164,8.33204874 C52.7728137,9.05786939 50.607446,11.6951196 49.640083,12.9011651 C48.67272,14.1072106 46.2079855,16.0082484 45.0389358,17.013575 C44.2595694,17.6837926 42.6806034,18.994726 40.302038,20.9463752 C42.0548101,20.3004388 43.2866386,19.8999343 43.9975234,19.7448617 C44.7084082,19.5897891 45.7786047,19.2848053 47.2081129,18.8299103 C48.29756,18.415704 48.9623688,18.4924077 49.202539,19.0600216 C49.5627945,19.9114424 41.2671408,23.5306267 38.9025615,23.8927551 C25.160549,25.9973037 21.1271546,27.1333657 18.8682392,28.9233712 C16.2206337,31.0213818 14.2575852,33.4872417 12.9790936,36.320951 L-3.19744231e-14,26.2598364 Z"></path>
                    <path stroke="#4C1819" id="Path-43" d="M40.4257298,9.21357316 C38.4372682,10.7018252 35.9438482,12.0414737 32.9454699,13.2325187"></path>
                    <path stroke="#4C1819" id="Path-44" d="M43.9625563,13.2325187 C41.3192921,14.9480631 38.75728,16.2111802 36.27652,17.0218701"></path>
                    <path stroke="#4C1819" id="Path-45" d="M43.9975234,19.7448617 C41.6742199,20.5431853 39.8747401,21.120645 38.599084,21.4772408"></path>
                </g>
                <g transform="translate(111.529639, 169.930260)" id="Path-65">
                    <mask fill="white" id="mask-23">
                        <use xlink:href="#path-22"></use>
                    </mask>
                    <use xlink:href="#path-22" fill="#AA5849" id="Mask"></use>
                    <polyline points="49.1096839 8.26815242 38.132903 11.6524812 7.25215924 1.29368529e-15" mask="url(#mask-23)" stroke="#5A271D"></polyline>
                    <path mask="url(#mask-23)" stroke="#5A271D" id="Path-64" d="M43.6494988,9.97841461 C43.4366451,9.97841461 32.315442,6.90063312 10.2858893,0.74507013"></path>
                    <line mask="url(#mask-23)" stroke="#5A271D" id="Path-66" y2="61.8163465" x2="29.4773012" y1="11.6524812" x1="38.132903"></line>
                </g>
                <g transform="translate(4.607870, 70.555507)" id="Clothes">
                    <path fill="#13BB84" id="Combined-Shape" d="M85.1822349,9.98112218 C95.2201493,20.3500592 113.08434,38.4914002 138.774806,64.405145 L162.669861,35.1560092 L179.635364,47.9041764 C164.630481,75.3456298 153.487592,91.0264527 146.206699,94.946645 C138.925806,98.8668374 122.454437,89.8163051 96.7925914,67.7950483 C100.50241,80.7308731 103.610288,90.8198515 106.116227,98.0619836 C108.622166,105.304116 110.864595,115.553551 112.843513,128.81029 L39.3057551,128.424984 C39.3057551,126.212134 39.273708,124.078873 39.1316181,121.876791 L7.40686426,121.876243 C-1.94067253,121.876243 -2.44069562,88.4022052 5.90679499,21.4541302 L5.90679499,21.4541302 L6.12239897,21.9012601 C7.24526544,12.6177724 12.754052,6.35432134 22.6487587,3.11090692 C54.2998284,-2.67788661 75.1443205,-0.38781486 85.1822349,9.98112218 Z M28.6331582,86.0379436 L26.6755902,98.6533821 L33.7405328,98.7851511 C32.3893713,95.0644065 30.712787,90.8645699 28.6331582,86.0379436 Z"></path>
                    <path stroke="#201F1D" id="Path-39" d="M17.6825005,60.6224454 C32.0980036,89.312308 39.3057551,111.913154 39.3057551,128.424984 L72.3784397,128.61409"></path>
                    <line stroke="#201F1D" id="Path-40" y2="84.7189236" x2="118.642339" y1="53.7981315" x1="77.3629385"></line>
                    <line stroke="#201F1D" id="Path-41" y2="64.405145" x2="138.774806" y1="35.1560092" x1="162.669861"></line>
                </g>
                <g transform="translate(0.000000, 198.980491)" id="Pants">
                    <g transform="translate(0.000000, 131.606888)" id="Foot">
                        <path fill="#FFA990" id="Path-34" d="M79.8362557,0 C75.0463454,22.4347534 73.8488679,40.5915686 76.243823,54.4704454 C78.6387782,68.3493223 78.244588,94.0305833 75.0612526,131.514229 L94.8594265,155.625293 L99.3433041,155.625293 C97.1515314,150.120083 95.6569055,145.780485 94.8594265,142.606498 C94.0619475,139.432511 93.5372344,135.735088 93.2852872,131.514229 L110.270486,0 L79.8362557,0 Z"></path>
                        <path fill="#201F1D" id="Path-35" d="M74.8879398,164.962311 L71.571977,139.387519 C71.7225233,127.72483 74.059011,122.427787 78.5814401,123.496391 C85.3650837,125.099296 88.7038419,153.493417 96.8551099,154.48825 C102.289289,155.151473 104.88728,158.642826 104.649083,164.962311 L85.4131946,164.962311 L78.5814401,150.925374 L76.9753834,164.962311 L74.8879398,164.962311 Z"></path>
                        <path fill="#FFA990" id="Path-37" d="M41.1286336,2.98427949e-13 L39.270929,19.7190649 C29.7224477,30.9297813 24.311565,43.4957665 23.0382809,57.4170202 C21.7649967,71.338274 16.2426449,93.0397831 6.47122521,122.521548 L24.2084718,154.620083 L31.0241298,156.597802 C27.8541499,151.954858 25.9035125,148.335783 25.1722176,145.740578 C24.4409227,143.145373 24.1196741,139.605704 24.2084718,135.121571 C35.2022701,103.335805 42.6809,82.0983981 46.6443614,71.4093498 C55.8121957,46.6846425 62.8284071,36.6094796 63.6973422,33.637578 C65.1297677,28.7384463 68.367572,17.5259203 73.410755,2.98427949e-13 L41.1286336,2.98427949e-13 Z"></path>
                        <path fill="#201F1D" id="Path-36" d="M6.47122521,122.521548 C2.15707507,128.823138 4.26325641e-14,134.706117 4.26325641e-14,140.170484 C4.26325641e-14,145.634851 4.26325641e-14,153.898793 4.26325641e-14,164.962311 L6.47122521,164.962311 L8.49795072,145.756312 C11.4997951,158.560311 14.2255226,164.962311 16.6751334,164.962311 C19.1247441,164.962311 24.4999117,164.962311 32.8006361,164.962311 C35.4608885,161.847618 34.7995297,158.889962 30.8165595,156.089344 C24.8421043,151.888417 19.216059,138.72036 18.253144,133.253782 C17.704195,130.137336 15.879578,124.46677 11.4904966,122.521548 C10.2574166,121.975052 8.58432618,121.975052 6.47122521,122.521548 Z"></path>
                    </g>
                    <path fill="#201F1D" id="Path-33" d="M43.9136256,0 C33.7920871,14.2002463 30.8398033,29.9499602 35.056774,47.2491415 C41.3822301,73.1979135 35.3476496,120.709632 33.0611844,134.07888 L117.451384,134.07888 C126.032417,67.5255941 126.032417,22.9610693 117.451384,0.385305918 L43.9136256,0 Z"></path>
                </g>
                <g transform="translate(12.836642, 0.000000)" id="Head">
                    <path fill="#FFA990" id="Path-30" d="M70.3768459,26.3640355 C69.6203628,45.2045188 65.6783865,58.6492617 58.5509172,66.6982644 C57.1683143,67.8266404 55.6723599,68.306393 54.0630539,68.1375222 L53.5046835,71.2399845 L47.2649784,71.2399845 L47.2649784,26.3640355 L70.3768459,26.3640355 Z"></path>
                    <path fill="#3D2423" id="Path-31" d="M61.8920538,5.7529308 C69.2304469,11.4893254 79.8627063,25.048804 57.981227,42.2418598 C57.4509063,38.0886243 56.5295949,35.8103075 55.2172928,35.4069094 C53.2488397,34.8018121 51.5058811,42.1654107 54.3598132,47.2300396 C53.2778319,49.053698 51.8598198,50.9059436 50.105777,52.7867763 C53.5134542,74.8144033 54.2770604,93.6041133 52.3965956,109.155906 C49.5758984,132.483596 7.36614742,128.72965 1.47392305,111.616849 C-4.41830131,94.5040484 8.81935836,87.5622949 15.4277827,67.6723529 C22.036207,47.7824108 14.472871,18.3780605 26.12815,7.09757276 C37.7834289,-4.18291496 54.5536607,0.0165361948 61.8920538,5.7529308 Z"></path>
                </g>
                <path stroke-width="4" stroke="#5A271D" id="Path-62" d="M134.883882,126.22984 C141.298264,120.607234 148.063349,138.500179 155.179138,179.908675"></path>
            </g>
        </g>
    </g>
</svg>